<?xml version="1.0" encoding="utf-8"?>
<!-- Generator: Adobe Illustrator 19.0.0, SVG Export Plug-In . SVG Version: 6.00 Build 0)  -->
<svg version="1.1" id="Layer_1" xmlns="http://www.w3.org/2000/svg" xmlns:xlink="http://www.w3.org/1999/xlink" x="0px" y="0px"
	 viewBox="-442 252.8 100 97.2" style="enable-background:new -442 252.8 100 97.2;" xml:space="preserve">
<style type="text/css">
	.st0{fill:none;stroke:#000000;stroke-width:2;stroke-miterlimit:10;}
</style>
<path class="st0" d="M-349.8,296.3h-7.9h-47.5c-27.7-18.5-34.3,5.3-34.3,5.3s2.9,2.1,4,2.6c1.1,0.5,2.6,1.3,5.3,1.3
	c0.2,0,15,0,31.9,0l15.6,14.5h7.9l-7.8-14.5c11.7,0,22.6,0,28.4,0l4.5,11.9h5.3v-15.8C-344.5,297.6-345.8,296.3-349.8,296.3z"/>
<polygon class="st0" points="-382.6,293.7 -376.2,281.8 -384.1,281.8 -396.9,293.7 "/>
<polygon class="st0" points="-365.6,308.2 -365.6,317.4 -360.3,317.4 -356.9,308.2 "/>
</svg>
