<?xml version="1.0" encoding="utf-8"?>
<!-- Generator: Adobe Illustrator 19.0.0, SVG Export Plug-In . SVG Version: 6.00 Build 0)  -->
<svg version="1.1" id="Layer_1" xmlns="http://www.w3.org/2000/svg" xmlns:xlink="http://www.w3.org/1999/xlink" x="0px" y="0px"
	 viewBox="-113.7 63.7 129.3 124.7" style="enable-background:new -113.7 63.7 129.3 124.7;" xml:space="preserve">
<style type="text/css">
	.st0{fill:#FFFFFF;}
</style>
<g>
	<path class="st0" d="M4.6,104.1l-4.4,13.2h-37.7l-13.2-8.8h-11.9v-5.3h42.1v-3.5h-87.8v3.5h42.1v5.3h-21.1l-13.2,17.6
		c-3.7,0.4-9.7,2.8-9.7,10.5c0,8.3,6.8,10.5,10.5,10.5h11.4v9.7h-2.6c-3.3,0-7-3.7-7-7h-3.5c0,5.3,5.3,10.5,10.5,10.5H-38v-3.5
		h-11.4v-9.7h3.3l5.3-5.3l4-12.3H0.8l4.4,4.4H12v-29.8H4.6z M-85.4,112.2h10l-3.5,14h-17L-85.4,112.2z M-52.8,156.8h-31.6v-9.7h31.6
		V156.8z M8.7,130.4H6.7l-4.4-4.4h-41.4l-4.7,14l-3.5,3.5h-52c-0.4,0-7,0-7-7c0-6.8,6.3-7,7-7h0.9h22.5l4.4-17.6h20l13.2,8.8H2.9
		l4.4-13.2h1.4L8.7,130.4L8.7,130.4z"/>
</g>
</svg>
