<?xml version="1.0" encoding="utf-8"?>
<!-- Generator: Adobe Illustrator 19.0.0, SVG Export Plug-In . SVG Version: 6.00 Build 0)  -->
<svg version="1.1" id="Isolation_Mode" xmlns="http://www.w3.org/2000/svg" xmlns:xlink="http://www.w3.org/1999/xlink" x="0px"
	 y="0px" viewBox="-442 251 100 100" style="enable-background:new -442 251 100 100;" xml:space="preserve">
<path d="M-372.7,286.7l-12.1-12.4c-0.2-0.2-0.4-0.3-0.7-0.3h-25.2c-0.5,0-1,0.4-1,1V325c0,0.5,0.4,1,1,1h37.3c0.5,0,1-0.4,1-1v-37.7
	C-372.4,287.1-372.5,286.8-372.7,286.7z M-384.5,286.4v-9l8.9,9H-384.5z M-385.5,288.3h11.2v35.8h-35.4v-48.1h23.3v11.4
	C-386.4,287.9-386,288.3-385.5,288.3z"/>
</svg>
