<?xml version="1.0" encoding="utf-8"?>
<!-- Generator: Adobe Illustrator 19.0.0, SVG Export Plug-In . SVG Version: 6.00 Build 0)  -->
<svg version="1.1" id="Layer_1" xmlns="http://www.w3.org/2000/svg" xmlns:xlink="http://www.w3.org/1999/xlink" x="0px" y="0px"
	 viewBox="-442 251 100 100" style="enable-background:new -442 251 100 100;" xml:space="preserve">
<g transform="translate(0,-952.36218)">
	<path d="M-361,1215.4c-3.5,0-7.4,2-10.7,5.2c0,0-10,9.6-14.7,14.7l-39.5-7.9c-0.4-0.1-0.9,0.1-1.1,0.5l-3,6c-0.2,0.5,0,1.1,0.5,1.3
		l28.8,14.4l-15.8,18.5c-1.9-0.6-4.1-1.2-6.2-1.1c-1.1,0-2.2,0.3-3.1,1s-1.4,1.9-1.4,3.3c0,1.5,0.5,2.8,1.3,3.7l12,12
		c1,0.9,2.5,1.3,3.7,1.3c1.4,0,2.6-0.5,3.3-1.4s0.9-2,1-3.1c0.1-2-0.5-4.3-1.1-6.2l18.5-15.8l14.4,28.8c0.2,0.5,0.9,0.7,1.3,0.5l6-3
		c0.4-0.2,0.6-0.7,0.5-1.1l-7.9-39.5c5.1-4.7,14.7-14.7,14.7-14.7c3.2-3.3,5.2-7.2,5.2-10.7c0-1.9-0.6-3.8-1.9-5.1
		C-357.2,1216-359.1,1215.4-361,1215.4z M-361,1217.4c1.5,0,2.8,0.5,3.7,1.3c0.8,0.9,1.3,2.2,1.3,3.7c0,2.7-1.7,6.3-4.7,9.3
		c0,0-9.8,10.2-15,15c-0.2,0.2-0.3,0.6-0.3,0.9l7.8,39.2l-4.4,2.2l-14.5-29.1c-0.3-0.6-1.1-0.7-1.6-0.3l-20,17
		c-0.3,0.3-0.4,0.7-0.3,1.1c0.6,1.9,1.2,4.4,1.2,6.1c0,0.9-0.2,1.5-0.5,1.9c-0.3,0.4-0.7,0.7-1.7,0.7c-0.7,0-1.4-0.2-2.3-0.8
		l-11.9-11.9c-0.6-0.9-0.8-1.6-0.8-2.3c0-1,0.3-1.4,0.7-1.7c0.4-0.3,1-0.5,1.9-0.5c1.8-0.1,4.2,0.6,6.1,1.2c0.4,0.1,0.8,0,1.1-0.3
		l17-20c0.4-0.5,0.2-1.3-0.3-1.6l-29.1-14.5l2.2-4.4l39.2,7.8c0.3,0.1,0.7,0,0.9-0.3c4.8-5.2,15-15,15-15
		C-367.8,1219.5-363.8,1217.4-361,1217.4L-361,1217.4z"/>
</g>
</svg>
