<?xml version="1.0" encoding="utf-8"?>
<!-- Generator: Adobe Illustrator 19.0.0, SVG Export Plug-In . SVG Version: 6.00 Build 0)  -->
<svg version="1.1" id="Layer_1" xmlns="http://www.w3.org/2000/svg" xmlns:xlink="http://www.w3.org/1999/xlink" x="0px" y="0px"
	 viewBox="-442 251 100 100" style="enable-background:new -442 251 100 100;" xml:space="preserve">
<style type="text/css">
	.st0{fill:none;stroke:#000000;stroke-width:2;stroke-linecap:round;}
</style>
<g>
	<g transform="translate(1.000000, 1.000000)">
		<path class="st0" d="M-438.5,304.2l17.6-4.8"/>
		<path class="st0" d="M-419.3,305.8l-19.2-1.6"/>
		<path class="st0" d="M-419.3,305.8l27.3,4.8"/>
		<path class="st0" d="M-373.1,326.6l-19-15.9"/>
		<path class="st0" d="M-366.3,325.1l-6.4,1.6"/>
		<path class="st0" d="M-369.5,312.2l3.2,12.8"/>
		<path class="st0" d="M-348.7,321.9l-16-9.6"/>
		<path class="st0" d="M-345.5,321.9l-3.2,0"/>
		<path class="st0" d="M-351.9,310.6l6.4,11.2"/>
		<path class="st0" d="M-351.9,310.6h-3.2"/>
		<path class="st0" d="M-351.9,299.4l-3.2,11.2"/>
		<path class="st0" d="M-355.1,297.8l3.2,1.6"/>
		<path class="st0" d="M-385.6,309l20.9,3.2"/>
		<path class="st0" d="M-355.1,297.8l-11.2,8"/>
		<path class="st0" d="M-385.6,309l19.2-3.2"/>
		<path class="st0" d="M-369.5,293l14.4-12.8"/>
		<path class="st0" d="M-351.9,281.8l-3.2-1.6"/>
		<path class="st0" d="M-358.3,299.4l6.4-17.6"/>
		<path class="st0" d="M-369.5,293l3.2-17.6"/>
		<path class="st0" d="M-371.1,275.3h4.8"/>
		<path class="st0" d="M-393.6,294.6l22.5-19.2"/>
		<path class="st0" d="M-369.5,293l-9.6,1.6"/>
		<path class="st0" d="M-393.6,294.6h14.4"/>
		<path class="st0" d="M-401.6,296.2l8-1.6"/>
		<path class="st0" d="M-401.7,296.8c0.2,1.8-4,3.6-9.3,4.2c-5.3,0.5-9.7-0.5-9.9-2.2c-0.2-1.8,4-3.6,9.3-4.2
			C-406.3,294.1-401.9,295.1-401.7,296.8L-401.7,296.8z"/>
		<path class="st0" d="M-353.5,288.2l4.8,1.6"/>
		<path class="st0" d="M-355.1,297.8l6.4-8"/>
	</g>
</g>
</svg>
