<?xml version="1.0" encoding="utf-8"?>
<!-- Generator: Adobe Illustrator 19.0.0, SVG Export Plug-In . SVG Version: 6.00 Build 0)  -->
<svg version="1.1" id="Layer_1" xmlns="http://www.w3.org/2000/svg" xmlns:xlink="http://www.w3.org/1999/xlink" x="0px" y="0px"
	 viewBox="-84 63.3 129.3 124.7" style="enable-background:new -84 63.3 129.3 124.7;" xml:space="preserve">
<style type="text/css">
	.st0{fill:#FFFFFF;}
</style>
<g>
	<path class="st0" d="M34.3,106.8L30,120H-7.8l-13.2-8.8h-11.9v-5.3H9.2v-3.5h-87.8v3.5h42.1v5.3h-21.1l-13.2,17.6
		c-3.7,0.4-9.7,2.8-9.7,10.5c0,8.3,6.8,10.5,10.5,10.5h11.4v9.7h-2.6c-3.3,0-7-3.7-7-7h-3.5c0,5.3,5.3,10.5,10.5,10.5h52.9v-3.5
		h-11.4v-9.7h3.3l5.3-5.3l4-12.3h37.6l4.4,4.4h6.8v-29.8L34.3,106.8L34.3,106.8z M-45.7,114.9l-20.5,14 M-23,159.5h-31.6v-9.7h31.6
		C-23.1,149.8-23.1,159.5-23,159.5z M32,128.7H-9.4c0,0-60.9,3.5-60.2,3.5h0.9l107.1,0.9L32,128.7z"/>
</g>
</svg>
