<?xml version="1.0" encoding="utf-8"?>
<!-- Generator: Adobe Illustrator 19.0.0, SVG Export Plug-In . SVG Version: 6.00 Build 0)  -->
<svg version="1.1" id="Layer_1" xmlns="http://www.w3.org/2000/svg" xmlns:xlink="http://www.w3.org/1999/xlink" x="0px" y="0px"
	 viewBox="-84 63.3 129.3 124.7" style="enable-background:new -84 63.3 129.3 124.7;" xml:space="preserve">
<style type="text/css">
	.st0{stroke:#FFFFFF;stroke-width:2;stroke-miterlimit:10;}
</style>
<g>
	<path class="st0" d="M33.9,99.8L29.5,113H-8.2l-13.2-8.8h-11.9v-5.3H8.8v-3.5H-79v3.5h42.1v5.3H-58l-13.2,17.6
		c-3.7,0.4-9.7,2.8-9.7,10.5c0,8.3,6.8,10.5,10.5,10.5H-59v9.7h-2.6c-3.3,0-7-3.7-7-7h-3.5c0,5.3,5.3,10.5,10.5,10.5h52.9v-3.5
		h-11.4v-9.7h3.3l5.3-5.3l4-12.3h37.6l4.4,4.4h6.8V99.7L33.9,99.8L33.9,99.8z M-56.1,107.9h10l-3.5,14h-17L-56.1,107.9z
		 M-23.5,152.5h-31.6v-9.7h31.6C-23.5,142.8-23.5,152.5-23.5,152.5z M38,126.1h-2l-4.4-4.4H-9.8l-4.7,14l-3.5,3.5h-52
		c-0.4,0-7,0-7-7c0-6.8,6.3-7,7-7h0.9h22.5l4.4-17.6h20l13.2,8.8h41.2l4.4-13.2H38V126.1L38,126.1z"/>
</g>
</svg>
