<?xml version="1.0" encoding="utf-8"?>
<!-- Generator: Adobe Illustrator 19.0.0, SVG Export Plug-In . SVG Version: 6.00 Build 0)  -->
<svg version="1.1" id="Layer_1" xmlns="http://www.w3.org/2000/svg" xmlns:xlink="http://www.w3.org/1999/xlink" x="0px" y="0px"
	 viewBox="-113.7 63.7 129.3 124.7" style="enable-background:new -113.7 63.7 129.3 124.7;" xml:space="preserve">
<style type="text/css">
	.st0{fill:#FFFFFF;}
</style>
<g transform="translate(0,-952.36218)">
	<path class="st0" d="M-3.9,1024.5c-5,0-10.5,2.8-15.2,7.4c0,0-14.2,13.7-20.9,20.9l-56.3-11.3c-0.6-0.1-1.3,0.1-1.6,0.7l-4.3,8.5
		c-0.3,0.7,0,1.6,0.7,1.9l41,20.5l-22.5,26.4c-2.7-0.9-5.8-1.7-8.8-1.6c-1.6,0-3.1,0.4-4.4,1.4c-1.3,1-2,2.7-2,4.7
		c0,2.1,0.7,4,1.9,5.3l17.1,17.1c1.4,1.3,3.6,1.9,5.3,1.9c2,0,3.7-0.7,4.7-2s1.3-2.8,1.4-4.4c0.1-2.8-0.7-6.1-1.6-8.8l26.4-22.5
		l20.5,41c0.3,0.7,1.3,1,1.9,0.7l8.5-4.3c0.6-0.3,0.9-1,0.7-1.6l-11.3-56.3c7.3-6.7,20.9-20.9,20.9-20.9c4.6-4.7,7.4-10.3,7.4-15.2
		c0-2.7-0.9-5.4-2.7-7.3C1.5,1025.4-1.2,1024.5-3.9,1024.5z"/>
</g>
</svg>
