<?xml version="1.0" encoding="utf-8"?>
<!-- Generator: Adobe Illustrator 19.0.0, SVG Export Plug-In . SVG Version: 6.00 Build 0)  -->
<svg version="1.1" id="Isolation_Mode" xmlns="http://www.w3.org/2000/svg" xmlns:xlink="http://www.w3.org/1999/xlink" x="0px"
	 y="0px" viewBox="-442 251 100 100" style="enable-background:new -442 251 100 100;" xml:space="preserve">
<path d="M-377,286c-0.5-0.5-1.3-0.5-1.8,0l-13.2,13.2l-13.3-13.2c-0.5-0.5-1.3-0.5-1.8,0s-0.5,1.3,0,1.8l13.3,13.2l-13.2,13.3
	c-0.5,0.5-0.5,1.3,0,1.8s1.3,0.5,1.8,0l13.2-13.3l13.3,13.2c0.2,0.2,0.6,0.4,0.9,0.4c0.3,0,0.6-0.1,0.9-0.4c0.5-0.5,0.5-1.3,0-1.8
	l-13.3-13.2l13.2-13.3C-376.5,287.3-376.5,286.5-377,286z"/>
</svg>
