<?xml version="1.0" encoding="utf-8"?>
<!-- Generator: Adobe Illustrator 19.0.0, SVG Export Plug-In . SVG Version: 6.00 Build 0)  -->
<svg version="1.1" id="Isolation_Mode" xmlns="http://www.w3.org/2000/svg" xmlns:xlink="http://www.w3.org/1999/xlink" x="0px"
	 y="0px" viewBox="-455 256.5 73.5 88.5" style="enable-background:new -455 256.5 73.5 88.5;" xml:space="preserve">
<path d="M-441.7,321.5c-8.1-6.7-13.3-16.9-13.3-28.3l0,0c0-20.3,16.5-36.7,36.8-36.8l0,0c20.3,0,36.7,16.5,36.8,36.8l0,0
	c0,11.3-5.1,21.4-13.1,28.1l-23.6,23.6L-441.7,321.5z M-418.2,324.1c17,0,30.8-13.8,30.9-30.9l0,0c0-17.1-13.8-30.8-30.9-30.9l0,0
	c-17.1,0-30.8,13.8-30.9,30.9l0,0C-449.1,310.3-435.3,324.1-418.2,324.1L-418.2,324.1z"/>
</svg>
