<?xml version="1.0" encoding="utf-8"?>
<!-- Generator: Adobe Illustrator 19.0.0, SVG Export Plug-In . SVG Version: 6.00 Build 0)  -->
<svg version="1.1" id="Layer_1" xmlns="http://www.w3.org/2000/svg" xmlns:xlink="http://www.w3.org/1999/xlink" x="0px" y="0px"
	 viewBox="-442 251 100 100" style="enable-background:new -442 251 100 100;" xml:space="preserve">
<style type="text/css">
	.st0{fill:none;stroke:#000000;stroke-width:5.6693;stroke-linecap:round;stroke-linejoin:round;stroke-miterlimit:10;}
</style>
<g>
	<g>
		<g>
			<path d="M-421.3,301c0-16.2,13.1-29.3,29.3-29.3c16.2,0,29.3,13.1,29.3,29.3c0,16.2-13.1,29.3-29.3,29.3S-421.3,317.2-421.3,301
				 M-427,301c0,19.3,15.7,35,35,35s35-15.7,35-35s-15.7-35-35-35C-411.3,266-427,281.7-427,301L-427,301z"/>
		</g>
		<g>
			<line class="st0" x1="-406.6" y1="301" x2="-376.9" y2="301"/>
		</g>
		<polyline class="st0" points="-397.5,311.4 -407,301 -397.5,290.6 		"/>
	</g>
</g>
</svg>
