<?xml version="1.0" encoding="utf-8"?>
<!-- Generator: Adobe Illustrator 19.0.0, SVG Export Plug-In . SVG Version: 6.00 Build 0)  -->
<svg version="1.1" id="Layer_1" xmlns="http://www.w3.org/2000/svg" xmlns:xlink="http://www.w3.org/1999/xlink" x="0px" y="0px"
	 viewBox="-442 251 100 100" style="enable-background:new -442 251 100 100;" xml:space="preserve">
<g transform="translate(-200,0)"
	<path d="M-361.5,286.2l-2.5,7.5h-21.5l-7.5-5h-6.8v-3h24v-2h-50v2h24v3h-12l-7.5,10c-2.1,0.2-5.5,1.6-5.5,6c0,4.7,3.9,6,6,6h6.5
		v5.5h-1.5c-1.9,0-4-2.1-4-4h-2c0,3,3,6,6,6h30v-2h-6.5v-5.5h1.9l3-3l2.3-7h21.4l2.5,2.5h3.9v-17H-361.5z M-412.8,290.8h5.7l-2,8
		h-9.7L-412.8,290.8z M-394.2,316.2h-18v-5.5h18V316.2z M-359.2,301.2h-1.1l-2.5-2.5h-23.6l-2.7,8l-2,2h-29.6c-0.2,0-4,0-4-4
		c0-3.9,3.6-4,4-4h0.5h12.8l2.5-10h11.4l7.5,5h23.5l2.5-7.5h0.8L-359.2,301.2L-359.2,301.2z"/>
</g>
</svg>
