<?xml version="1.0" encoding="utf-8"?>
<!-- Generator: Adobe Illustrator 19.0.0, SVG Export Plug-In . SVG Version: 6.00 Build 0)  -->
<svg version="1.1" id="Layer_1" xmlns="http://www.w3.org/2000/svg" xmlns:xlink="http://www.w3.org/1999/xlink" x="0px" y="0px"
	 viewBox="-447 255 91 91" style="enable-background:new -447 255 91 91;" xml:space="preserve">
<g>
	<path d="M-427.6,294.5l2.2,2.6c6.8-5.9,15.4-9.2,24.3-9.2c8.9,0,17.6,3.3,24.3,9.2l2.2-2.6c-7.4-6.5-16.8-10-26.6-10
		C-410.8,284.5-420.2,288-427.6,294.5z"/>
	<path d="M-419.9,303.2l2.2,2.6c4.6-4.1,10.6-6.3,16.7-6.3c6.1,0,12.1,2.2,16.7,6.3l2.2-2.6c-5.3-4.6-12-7.1-18.9-7.1
		C-407.9,296.1-414.7,298.6-419.9,303.2z"/>
	<path d="M-412.8,311.4l2.2,2.6c2.7-2.3,6.1-3.6,9.6-3.6c3.5,0,6.9,1.3,9.6,3.6l2.2-2.6c-3.3-2.9-7.5-4.5-11.8-4.5
		C-405.3,306.9-409.5,308.5-412.8,311.4z"/>
	<path d="M-406.4,318.7l2.2,2.6c0.6-0.6,1.7-1.2,3.1-1.2c1.5,0,2.5,0.7,3.1,1.2l2.2-2.6c-1.5-1.3-3.4-2-5.4-2
		C-403,316.7-404.9,317.4-406.4,318.7z"/>
</g>
</svg>
